<svg width="61" height="60" viewBox="0 0 61 60" fill="none" xmlns="http://www.w3.org/2000/svg">
<g clip-path="url(#clip0_12_8)">
<path d="M19.8767 12.48C19.6915 12.6725 19.5405 12.8952 19.43 13.1383L19.4167 13.125L0.723335 55.235L0.741669 55.2533C0.395002 55.925 0.975002 57.2917 2.16334 58.4817C3.35167 59.67 4.71834 60.25 5.39 59.9033L5.40667 59.92L47.5167 41.225L47.5033 41.21C47.7483 41.0933 47.9733 40.9517 48.1617 40.7617C50.765 38.1583 46.5433 29.7167 38.735 21.9067C30.9233 14.0967 22.4817 9.87667 19.8767 12.48Z" fill="#DD2E44"/>
<path d="M22.1667 20L1.19334 54.1767L0.723335 55.235L0.741669 55.2533C0.395002 55.925 0.975002 57.2917 2.16334 58.4817C2.55 58.8683 2.95167 59.1617 3.345 59.41L28.8333 28.3333L22.1667 20Z" fill="#EA596E"/>
<path d="M38.8533 21.7767C46.6367 29.5633 50.9583 37.8633 48.5017 40.3167C46.0467 42.7733 37.7467 38.4533 29.9583 30.67C22.1733 22.8833 17.8533 14.58 20.3083 12.125C22.765 9.67002 31.065 13.99 38.8533 21.7767Z" fill="#A0041E"/>
<path d="M31.4833 22.6817C31.3134 22.8195 31.1177 22.9222 30.9077 22.9837C30.6976 23.0452 30.4775 23.0644 30.26 23.04C28.8133 22.8833 27.5967 22.38 26.745 21.585C25.8433 20.7433 25.3983 19.6133 25.52 18.4817C25.7333 16.495 27.7267 14.6717 31.125 15.0383C32.4467 15.18 33.0367 14.755 33.0567 14.5517C33.08 14.35 32.595 13.8083 31.2733 13.665C29.8267 13.5083 28.61 13.005 27.7567 12.21C26.855 11.3683 26.4083 10.2383 26.5317 9.10666C26.7483 7.11999 28.74 5.29665 32.135 5.66499C33.0983 5.76832 33.6067 5.56999 33.8217 5.44165C33.9933 5.33665 34.0617 5.23665 34.0683 5.17832C34.0883 4.97665 33.61 4.43499 32.285 4.29165C32.0673 4.26841 31.8563 4.20241 31.6642 4.09744C31.472 3.99247 31.3025 3.85059 31.1653 3.67995C31.0281 3.50931 30.9259 3.31327 30.8647 3.10306C30.8034 2.89285 30.7843 2.67261 30.8083 2.45499C30.8314 2.23735 30.8972 2.0264 31.002 1.83426C31.1068 1.64213 31.2485 1.47258 31.419 1.33537C31.5895 1.19816 31.7855 1.09599 31.9956 1.03471C32.2057 0.973439 32.4258 0.954276 32.6433 0.978322C36.0383 1.34332 37.5983 3.54832 37.3833 5.53665C37.1667 7.52665 35.175 9.34665 31.7767 8.98165C30.8133 8.87665 30.31 9.07665 30.0933 9.20499C29.9217 9.30832 29.8517 9.40999 29.845 9.46665C29.8233 9.66999 30.305 10.21 31.63 10.3533C35.025 10.72 36.585 12.9233 36.37 14.9117C36.155 16.8983 34.1633 18.7217 30.7667 18.3533C29.8033 18.25 29.2967 18.45 29.08 18.5767C28.9067 18.6833 28.84 18.7833 28.8333 18.84C28.8117 19.0417 29.2933 19.5833 30.6167 19.7267C30.9444 19.762 31.2542 19.8938 31.5071 20.1052C31.7599 20.3167 31.9444 20.5984 32.0371 20.9146C32.1299 21.2309 32.1268 21.5676 32.0282 21.8821C31.9296 22.1967 31.74 22.4749 31.4833 22.6817Z" fill="#AA8DD8"/>
<path d="M51.6017 38.095C54.89 37.1667 57.1583 38.6333 57.6983 40.5583C58.2383 42.4817 57.0683 44.9167 53.7817 45.8417C52.4983 46.2017 52.1133 46.815 52.165 47.01C52.2217 47.2067 52.8733 47.53 54.1533 47.1683C57.44 46.2433 59.7083 47.71 60.2483 49.6333C60.7917 51.5583 59.6183 53.99 56.33 54.9167C55.0483 55.2767 54.6617 55.8917 54.7183 56.0867C54.7733 56.2817 55.4233 56.605 56.705 56.245C56.9176 56.1793 57.1413 56.1568 57.3627 56.1789C57.5842 56.201 57.799 56.2672 57.9945 56.3737C58.1899 56.4801 58.3621 56.6246 58.5008 56.7987C58.6395 56.9728 58.7419 57.1729 58.802 57.3872C58.8621 57.6014 58.8787 57.8256 58.8508 58.0464C58.8228 58.2672 58.751 58.4802 58.6394 58.6728C58.5278 58.8654 58.3788 59.0336 58.2012 59.1677C58.0235 59.3018 57.8208 59.3989 57.605 59.4533C54.32 60.3783 52.05 58.915 51.5067 56.9883C50.9667 55.065 52.1383 52.6333 55.4283 51.7067C56.7117 51.345 57.0967 50.7333 57.04 50.5367C56.9867 50.3417 56.3367 50.0167 55.0567 50.3767C51.7667 51.3033 49.5 49.84 48.9583 47.9117C48.4167 45.9883 49.5883 43.5567 52.8767 42.6283C54.1567 42.27 54.5417 41.6533 54.4883 41.46C54.4317 41.2633 53.7833 40.94 52.5017 41.3C52.2874 41.3722 52.0608 41.4 51.8355 41.3818C51.6101 41.3636 51.3909 41.2998 51.191 41.1942C50.9911 41.0886 50.8148 40.9435 50.6728 40.7676C50.5308 40.5917 50.4261 40.3888 50.365 40.1711C50.3039 39.9535 50.2877 39.7257 50.3173 39.5016C50.347 39.2775 50.422 39.0618 50.5377 38.8676C50.6534 38.6734 50.8074 38.5048 50.9903 38.3719C51.1732 38.2391 51.3812 38.1449 51.6017 38.095Z" fill="#77B255"/>
<path d="M38.835 33.6C38.4899 33.5995 38.1534 33.492 37.8719 33.2923C37.5904 33.0926 37.3778 32.8105 37.2633 32.4849C37.1489 32.1593 37.1382 31.8062 37.2329 31.4743C37.3275 31.1424 37.5227 30.848 37.7917 30.6317C38.155 30.34 46.8217 23.5333 59.07 25.285C59.2916 25.31 59.5059 25.3793 59.7002 25.4887C59.8946 25.5981 60.065 25.7453 60.2014 25.9218C60.3377 26.0982 60.4373 26.3002 60.4942 26.5158C60.5511 26.7314 60.5642 26.9563 60.5326 27.177C60.5011 27.3978 60.4255 27.61 60.3105 27.801C60.1954 27.992 60.0432 28.158 59.8628 28.2892C59.6824 28.4203 59.4776 28.5139 59.2604 28.5644C59.0432 28.615 58.8181 28.6214 58.5983 28.5833C47.7767 27.0467 39.9533 33.1733 39.8767 33.235C39.581 33.4716 39.2136 33.6003 38.835 33.6Z" fill="#AA8DD8"/>
<path d="M10.09 26.6667C9.83022 26.6667 9.57404 26.606 9.34189 26.4894C9.10974 26.3728 8.90806 26.2036 8.75295 25.9952C8.59783 25.7868 8.49358 25.545 8.4485 25.2892C8.40343 25.0333 8.41878 24.7705 8.49334 24.5217C10.3817 18.2333 12.0933 8.19833 9.99 5.58166C9.755 5.285 9.4 4.99333 8.58667 5.055C7.02334 5.175 7.17167 8.47333 7.17334 8.50666C7.19451 8.72747 7.17139 8.95027 7.10533 9.16202C7.03928 9.37378 6.93163 9.57021 6.78868 9.73982C6.64573 9.90943 6.47036 10.0488 6.27285 10.1498C6.07534 10.2507 5.85967 10.3112 5.63847 10.3278C5.41727 10.3443 5.195 10.3165 4.98468 10.246C4.77436 10.1755 4.58023 10.0638 4.41366 9.91729C4.24709 9.77081 4.11144 9.59256 4.01465 9.39297C3.91786 9.19339 3.86188 8.97649 3.85 8.755C3.67834 6.45666 4.39334 2.03 8.33667 1.73166C10.0967 1.59833 11.5583 2.21 12.59 3.49333C16.5417 8.41166 12.53 22.67 11.6867 25.48C11.5835 25.8232 11.3724 26.1239 11.0848 26.3377C10.7972 26.5514 10.4483 26.6668 10.09 26.6667Z" fill="#77B255"/>
<path d="M43 18.3333C44.3807 18.3333 45.5 17.2141 45.5 15.8333C45.5 14.4526 44.3807 13.3333 43 13.3333C41.6193 13.3333 40.5 14.4526 40.5 15.8333C40.5 17.2141 41.6193 18.3333 43 18.3333Z" fill="#5C913B"/>
<path d="M3.83333 33.3333C5.67428 33.3333 7.16667 31.8409 7.16667 30C7.16667 28.159 5.67428 26.6667 3.83333 26.6667C1.99238 26.6667 0.5 28.159 0.5 30C0.5 31.8409 1.99238 33.3333 3.83333 33.3333Z" fill="#9266CC"/>
<path d="M54.6667 35C56.0474 35 57.1667 33.8807 57.1667 32.5C57.1667 31.1193 56.0474 30 54.6667 30C53.2859 30 52.1667 31.1193 52.1667 32.5C52.1667 33.8807 53.2859 35 54.6667 35Z" fill="#5C913B"/>
<path d="M39.6667 55C41.0474 55 42.1667 53.8807 42.1667 52.5C42.1667 51.1193 41.0474 50 39.6667 50C38.2859 50 37.1667 51.1193 37.1667 52.5C37.1667 53.8807 38.2859 55 39.6667 55Z" fill="#5C913B"/>
<path d="M47.1667 10C49.0076 10 50.5 8.50763 50.5 6.66668C50.5 4.82573 49.0076 3.33334 47.1667 3.33334C45.3257 3.33334 43.8333 4.82573 43.8333 6.66668C43.8333 8.50763 45.3257 10 47.1667 10Z" fill="#FFCC4D"/>
<path d="M54.6667 16.6667C56.0474 16.6667 57.1667 15.5474 57.1667 14.1667C57.1667 12.7859 56.0474 11.6667 54.6667 11.6667C53.2859 11.6667 52.1667 12.7859 52.1667 14.1667C52.1667 15.5474 53.2859 16.6667 54.6667 16.6667Z" fill="#FFCC4D"/>
<path d="M49.6667 23.3333C51.0474 23.3333 52.1667 22.2141 52.1667 20.8333C52.1667 19.4526 51.0474 18.3333 49.6667 18.3333C48.2859 18.3333 47.1667 19.4526 47.1667 20.8333C47.1667 22.2141 48.2859 23.3333 49.6667 23.3333Z" fill="#FFCC4D"/>
<path d="M13 41.6667C14.3807 41.6667 15.5 40.5474 15.5 39.1667C15.5 37.7859 14.3807 36.6667 13 36.6667C11.6193 36.6667 10.5 37.7859 10.5 39.1667C10.5 40.5474 11.6193 41.6667 13 41.6667Z" fill="#FFCC4D"/>
</g>
<defs>
<clipPath id="clip0_12_8">
<rect width="60" height="60" fill="white" transform="translate(0.5)"/>
</clipPath>
</defs>
</svg>
